<svg width="236" height="236" viewBox="0 0 236 236" fill="none" xmlns="http://www.w3.org/2000/svg">
<path d="M236 118C236 183.17 183.17 236 118 236C52.8304 236 0 183.17 0 118C0 52.8304 52.8304 0 118 0C183.17 0 236 52.8304 236 118Z" fill="#EDEDED"/>
<path d="M226 96.5C226 144.273 187.273 183 139.5 183C91.7274 183 53 144.273 53 96.5C53 48.7274 91.7274 10 139.5 10C187.273 10 226 48.7274 226 96.5Z" fill="#222222"/>
<path d="M50.1799 201.572C47.8367 203.915 44.0377 203.915 41.6946 201.572C39.3514 199.229 39.3514 195.43 41.6946 193.087C41.6946 193.087 117.002 122.023 126.548 84.8995C136.094 47.7765 176.751 11.3608 176.751 11.3608C179.094 9.01769 182.894 9.01709 185.237 11.3601C187.58 13.7032 187.58 17.5029 185.237 19.8461C185.237 19.8461 139.275 63.686 148.114 72.525C156.953 81.364 200.086 34.6946 200.086 34.6946C202.43 32.3514 206.229 32.3515 208.572 34.6946C210.915 37.0377 210.915 40.8367 208.572 43.1799C208.572 43.1799 161.902 86.313 170.741 95.152C179.58 103.991 223.42 58.0298 223.42 58.0298C225.763 55.6867 229.563 55.686 231.906 58.0291C234.249 60.3723 234.249 64.172 231.906 66.5151C231.906 66.5151 194.783 106.466 157.66 116.012C120.537 125.558 50.1799 201.572 50.1799 201.572Z" fill="#EDEDED"/>
</svg>
